# xmcd CD database file
#
# Track frame offsets:
#	150
#	17666
#	32841
#	50865
#	66036
#	80816
#	103616
#	116818
#	138170
#	148228
#	157999
#	171559
#	182488
#	192725
#	208912
#	225632
#	238114
#	255162
#	268123
#	282799
#
# Disc length: 4040 seconds
#
# Revision: 0
# Processed by: cddbd v1.5.1PL0 Copyright (c) Steve Scherf et al.
# Submitted via: CDex 1.51
#
DISCID=2f0fc614
DTITLE=Amandio Cabral - Um Caboverdeano Satisfeito
DYEAR=2004
DGENRE=Jazz
TTITLE0=Baldaque da Silva
TTITLE1=Traidora
TTITLE2=Secredo di Céu
TTITLE3=Para Quê
TTITLE4=Dança Querida
TTITLE5=Ribeira Brava
TTITLE6=Your Love Is Here
TTITLE7=Unidad Unidad
TTITLE8=Cutch Cutch
TTITLE9=Nôs Oração
TTITLE10=Lembrando Cabo Verde
TTITLE11=Xandinha
TTITLE12=Tchim Tchim
TTITLE13=Tristalegria
TTITLE14=Momento Mágico
TTITLE15=Marilena
TTITLE16=Nha Ilusão
TTITLE17=A Busca Terminou
TTITLE18=For a Long Long Time
TTITLE19=Nha Destino
EXTD=YEAR: 2004
EXTT0=
EXTT1=
EXTT2=
EXTT3=
EXTT4=
EXTT5=
EXTT6=
EXTT7=
EXTT8=
EXTT9=
EXTT10=
EXTT11=
EXTT12=
EXTT13=
EXTT14=
EXTT15=
EXTT16=
EXTT17=
EXTT18=
EXTT19=
PLAYORDER=
